<?xml version="1.0" encoding="UTF-8"?>
<svg width="146px" height="36px" viewBox="0 0 146 36" version="1.1" xmlns="http://www.w3.org/2000/svg" xmlns:xlink="http://www.w3.org/1999/xlink">
    <!-- Generator: Sketch 58 (84663) - https://sketch.com -->
    <title>Group 5</title>
    <desc>Created with Sketch.</desc>
    <g id="Page-1" stroke="none" stroke-width="1" fill="none" fill-rule="evenodd">
        <g id="01-Home" transform="translate(-257.000000, -62.000000)">
            <g id="Group-6" transform="translate(-1.000000, 0.000000)">
                <g id="Group-14" transform="translate(256.000000, 60.000000)">
                    <g id="Group-5">
                        <g id="Group-4" fill="#14B45C">
                            <path d="M13.8298517,4 L34.1701483,4 C37.9359236,4 39.3014848,4.39209541 40.678196,5.12836861 C42.0549072,5.86464181 43.1353582,6.94509282 43.8716314,8.32180401 C44.6079046,9.69851521 45,11.0640764 45,14.8298517 L45,25.1701483 C45,28.9359236 44.6079046,30.3014848 43.8716314,31.678196 C43.1353582,33.0549072 42.0549072,34.1353582 40.678196,34.8716314 C39.3014848,35.6079046 37.9359236,36 34.1701483,36 L13.8298517,36 C10.0640764,36 8.69851521,35.6079046 7.32180401,34.8716314 C5.94509282,34.1353582 4.86464181,33.0549072 4.12836861,31.678196 C3.39209541,30.3014848 3,28.9359236 3,25.1701483 L3,14.8298517 C3,11.0640764 3.39209541,9.69851521 4.12836861,8.32180401 C4.86464181,6.94509282 5.94509282,5.86464181 7.32180401,5.12836861 C8.69851521,4.39209541 10.0640764,4 13.8298517,4 Z" id="Combined-Shape" opacity="0.200000003" transform="translate(24.000000, 20.000000) rotate(-10.000000) translate(-24.000000, -20.000000) "></path>
                            <path d="M32.7444592,5 C36.3105342,5 37.6036791,5.37130244 38.9073828,6.06853082 C40.2110865,6.76575919 41.2342408,7.78891348 41.9314692,9.09261719 C42.6286976,10.3963209 43,11.6894658 43,15.2555408 L43,24.7444592 C43,28.3105342 42.6286976,29.6036791 41.9314692,30.9073828 C41.2342408,32.2110865 40.2110865,33.2342408 38.9073828,33.9314692 C37.6036791,34.6286976 36.3105342,35 32.7444592,35 L13.2555408,35 C9.68946584,35 8.39632089,34.6286976 7.09261719,33.9314692 C5.78891348,33.2342408 4.76575919,32.2110865 4.06853082,30.9073828 C3.37130244,29.6036791 3,28.3105342 3,24.7444592 L3,15.2555408 C3,11.6894658 3.37130244,10.3963209 4.06853082,9.09261719 C4.76575919,7.78891348 5.78891348,6.76575919 7.09261719,6.06853082 C8.39632089,5.37130244 9.68946584,5 13.2555408,5 L32.7444592,5 Z M21.1567567,12.5405405 C20.9096524,11.8198198 19.8903475,11.8198198 19.6432432,12.5405405 L19.6432432,12.5405405 L17.4285714,19 L14.8,19 C14.3581722,19 14,19.3581722 14,19.8 C14,20.2418277 14.3581722,20.5999999 14.8,20.5999999 L14.8,20.5999999 L18,20.5999999 C18.3418293,20.5999999 18.6458931,20.3828115 18.7567567,20.0594594 L18.7567567,20.0594594 L20.4,15.2666665 L24.4432432,27.0594594 C24.6903475,27.7801801 25.7096524,27.7801801 25.9567567,27.0594594 L25.9567567,27.0594594 L28.1714285,20.5999999 L30.8,20.5999999 C31.2418277,20.5999999 31.5999999,20.2418277 31.5999999,19.8 C31.5999999,19.3581722 31.2418277,19 30.8,19 L30.8,19 L27.6,19 C27.2581706,19 26.9541068,19.2171884 26.8432432,19.5405405 L26.8432432,19.5405405 L25.2,24.3333334 Z" id="Combined-Shape"></path>
                        </g>
                        <path d="M59.05,28.302 C56.938,28.302 55.574,27.158 54.694,25.882 L54.694,28.06 L53,28.06 L53,12 L54.694,12 L54.694,18.974 C55.618,17.61 56.96,16.444 59.05,16.444 C61.778,16.444 64.484,18.6 64.484,22.34 L64.484,22.384 C64.484,26.102 61.8,28.302 59.05,28.302 Z M58.742,26.784 C60.942,26.784 62.746,25.156 62.746,22.406 L62.746,22.362 C62.746,19.678 60.898,17.962 58.742,17.962 C56.63,17.962 54.628,19.744 54.628,22.34 L54.628,22.384 C54.628,25.024 56.63,26.784 58.742,26.784 Z M68.62,23.066 C68.862,25.464 70.622,26.85 72.624,26.85 C74.186,26.85 75.286,26.212 76.21,25.244 L77.266,26.19 C76.122,27.466 74.736,28.324 72.58,28.324 C69.456,28.324 66.904,25.926 66.904,22.384 C66.904,19.084 69.214,16.444 72.36,16.444 C75.726,16.444 77.662,19.128 77.662,22.472 C77.662,22.626 77.662,22.802 77.64,23.066 L68.62,23.066 Z M68.62,21.702 L75.946,21.702 C75.748,19.634 74.56,17.874 72.316,17.874 C70.358,17.874 68.862,19.502 68.62,21.702 Z M81.644,23.066 C81.886,25.464 83.646,26.85 85.648,26.85 C87.21,26.85 88.31,26.212 89.234,25.244 L90.29,26.19 C89.146,27.466 87.76,28.324 85.604,28.324 C82.48,28.324 79.928,25.926 79.928,22.384 C79.928,19.084 82.238,16.444 85.384,16.444 C88.75,16.444 90.686,19.128 90.686,22.472 C90.686,22.626 90.686,22.802 90.664,23.066 L81.644,23.066 Z M81.644,21.702 L88.97,21.702 C88.772,19.634 87.584,17.874 85.34,17.874 C83.382,17.874 81.886,19.502 81.644,21.702 Z M93.656,31.58 L93.656,16.686 L95.35,16.686 L95.35,18.974 C96.274,17.61 97.616,16.444 99.706,16.444 C102.434,16.444 105.14,18.6 105.14,22.34 L105.14,22.384 C105.14,26.102 102.456,28.302 99.706,28.302 C97.594,28.302 96.23,27.158 95.35,25.882 L95.35,31.58 L93.656,31.58 Z M99.398,26.784 C101.598,26.784 103.402,25.156 103.402,22.406 L103.402,22.362 C103.402,19.678 101.554,17.962 99.398,17.962 C97.286,17.962 95.284,19.744 95.284,22.34 L95.284,22.384 C95.284,25.024 97.286,26.784 99.398,26.784 Z M114.886,28.28 C113.104,28.28 112.004,27.466 111.212,26.52 L111.212,28.06 L107.868,28.06 L107.868,12 L111.212,12 L111.212,17.962 C112.026,16.862 113.148,16.048 114.886,16.048 C117.636,16.048 120.254,18.204 120.254,22.142 L120.254,22.186 C120.254,26.124 117.68,28.28 114.886,28.28 Z M114.028,25.442 C115.59,25.442 116.91,24.166 116.91,22.186 L116.91,22.142 C116.91,20.184 115.59,18.886 114.028,18.886 C112.466,18.886 111.168,20.184 111.168,22.142 L111.168,22.186 C111.168,24.144 112.466,25.442 114.028,25.442 Z M122.324,28.06 L122.324,24.54 L125.888,24.54 L125.888,28.06 L122.324,28.06 Z M128.814,14.97 L128.814,12 L132.334,12 L132.334,14.97 L128.814,14.97 Z M128.902,28.06 L128.902,16.268 L132.246,16.268 L132.246,28.06 L128.902,28.06 Z M141.178,28.324 C137.526,28.324 134.82,25.618 134.82,22.23 L134.82,22.186 C134.82,18.798 137.548,16.048 141.222,16.048 C144.874,16.048 147.58,18.754 147.58,22.142 L147.58,22.186 C147.58,25.574 144.852,28.324 141.178,28.324 Z M141.222,25.442 C143.136,25.442 144.28,23.968 144.28,22.23 L144.28,22.186 C144.28,20.448 143.026,18.93 141.178,18.93 C139.264,18.93 138.12,20.404 138.12,22.142 L138.12,22.186 C138.12,23.924 139.374,25.442 141.222,25.442 Z" id="beepbot.io" fill="#FFFFFF"></path>
                    </g>
                </g>
            </g>
        </g>
    </g>
</svg>